<svg xmlns="http://www.w3.org/2000/svg" viewBox="0 0 128 128" fill="none">
  <defs>
    <linearGradient id="cyberBg" x1="12" y1="12" x2="116" y2="116" gradientUnits="userSpaceOnUse">
      <stop offset="0%" stop-color="#121622" />
      <stop offset="100%" stop-color="#07080b" />
    </linearGradient>
    <linearGradient id="neonCyanGrad" x1="20" y1="20" x2="108" y2="108" gradientUnits="userSpaceOnUse">
      <stop offset="0%" stop-color="#00f0ff" />
      <stop offset="100%" stop-color="#00a3ff" />
    </linearGradient>
    <linearGradient id="neonPinkGrad" x1="60" y1="30" x2="110" y2="90" gradientUnits="userSpaceOnUse">
      <stop offset="0%" stop-color="#ff0055" />
      <stop offset="100%" stop-color="#b026ff" />
    </linearGradient>
    <filter id="neonGlow" x="0" y="0" width="128" height="128" filterUnits="userSpaceOnUse">
      <feDropShadow dx="0" dy="0" stdDeviation="4" flood-color="#00f0ff" flood-opacity="0.5" />
    </filter>
  </defs>

  <!-- Cyberpunk Obsidian Base -->
  <rect x="8" y="8" width="112" height="112" rx="22" fill="url(#cyberBg)" stroke="#00f0ff" stroke-width="1.8" />

  <!-- Tech HUD Corner Brackets -->
  <path d="M14 26V14H26" stroke="#00f0ff" stroke-width="2.5" stroke-linecap="round" />
  <path d="M114 26V14H102" stroke="#00f0ff" stroke-width="2.5" stroke-linecap="round" />
  <path d="M14 102V114H26" stroke="#00f0ff" stroke-width="2.5" stroke-linecap="round" />
  <path d="M114 102V114H102" stroke="#00f0ff" stroke-width="2.5" stroke-linecap="round" />

  <!-- Back Holographic Peer Bubble (Laser Magenta) -->
  <path d="M70 38H88C95.732 38 102 44.268 102 52V64C102 71.732 95.732 78 88 78H85L80 85V78H70C62.268 78 56 71.732 56 64V52C56 44.268 62.268 38 70 38Z" fill="url(#neonPinkGrad)" opacity="0.85" />

  <!-- Main Cyber Video Camera Bubble -->
  <g filter="url(#neonGlow)">
    <rect x="24" y="44" width="50" height="40" rx="10" fill="#0f131c" stroke="#00f0ff" stroke-width="2" />
    <path d="M36 84L30 92V84H36Z" fill="#0f131c" stroke="#00f0ff" stroke-width="1.5" />

    <!-- Camera Projection Cone (Neon Cyan) -->
    <path d="M74 54L90 44V84L74 74V54Z" fill="url(#neonCyanGrad)" />

    <!-- Central Cybernetic Aperture / Shutter Core -->
    <circle cx="49" cy="64" r="10" fill="#001824" stroke="#00f0ff" stroke-width="2" />
    <circle cx="49" cy="64" r="5" fill="#ff0055" />
    <circle cx="51" cy="62" r="1.5" fill="#ffffff" />
  </g>

  <!-- Live Pulse Beacon (Matrix Toxic Green) -->
  <circle cx="96" cy="32" r="6" fill="rgba(0, 255, 102, 0.3)" />
  <circle cx="96" cy="32" r="3.5" fill="#00ff66" />
</svg>
